<svg width="300" height="300" viewBox="0 0 300 300" fill="none" xmlns="http://www.w3.org/2000/svg">
<g opacity="0.3">
<mask id="mask0" mask-type="alpha" maskUnits="userSpaceOnUse" x="0" y="0" width="300" height="300">
<circle cx="150" cy="150" r="115" stroke="black" stroke-width="70"/>
</mask>
<g mask="url(#mask0)">
<circle cx="150" cy="150" r="150" fill="#C4C4C4"/>
<path d="M300 150C300 182.178 289.652 213.503 270.485 239.35C251.317 265.197 224.346 284.194 193.554 293.538C162.762 302.881 129.782 302.075 99.4836 291.238C69.1851 280.401 43.1746 260.108 25.293 233.356C7.41145 206.603 -1.39322 174.81 0.179198 142.67C1.75162 110.53 13.6178 79.7481 34.0254 54.8691C54.433 29.9901 82.3002 12.3331 113.512 4.50562C144.723 -3.32187 177.625 -0.904928 207.358 11.3995L150 150H300Z" fill="#ACACAC"/>
</g>
</g>
</svg>
