<svg width="578" height="251" viewBox="0 0 578 251" fill="none" xmlns="http://www.w3.org/2000/svg">
<circle cx="109" cy="80" r="80" fill="#58BBA6"/>
<circle cx="469" cy="80" r="80" fill="#C4C4C4"/>
<rect x="389" width="160" height="160" fill="#58BBA6"/>
<path fill-rule="evenodd" clip-rule="evenodd" d="M578 37H458V67H578V37ZM578 92H458V122H578V92Z" fill="white"/>
<path d="M209 0H309C342.137 0 369 26.8629 369 60C369 93.1371 342.137 120 309 120H269V160H209V0Z" fill="#58BBA6"/>
<path d="M48.1895 233.893C48.1895 235.982 47.8281 237.818 47.1055 239.4C46.3828 240.973 45.3477 242.184 44 243.033C42.6621 243.873 41.1191 244.293 39.3711 244.293C37.6426 244.293 36.0996 243.873 34.7422 243.033C33.3945 242.184 32.3496 240.978 31.6074 239.415C30.875 237.853 30.5039 236.051 30.4941 234.01V232.809C30.4941 230.729 30.8604 228.893 31.5928 227.301C32.335 225.709 33.375 224.493 34.7129 223.653C36.0605 222.804 37.6035 222.379 39.3418 222.379C41.0801 222.379 42.6182 222.799 43.9561 223.639C45.3037 224.469 46.3438 225.67 47.0762 227.242C47.8086 228.805 48.1797 230.626 48.1895 232.706V233.893ZM44.4834 232.779C44.4834 230.416 44.0342 228.604 43.1357 227.345C42.2471 226.085 40.9824 225.455 39.3418 225.455C37.7402 225.455 36.4854 226.085 35.5771 227.345C34.6787 228.595 34.2197 230.367 34.2002 232.662V233.893C34.2002 236.236 34.6543 238.048 35.5625 239.327C36.4805 240.606 37.75 241.246 39.3711 241.246C41.0117 241.246 42.2715 240.621 43.1504 239.371C44.0391 238.121 44.4834 236.295 44.4834 233.893V232.779ZM79.8998 244H76.1938L66.6869 228.868V244H62.9809V222.672H66.6869L76.223 237.862V222.672H79.8998V244ZM107.846 234.479H99.0857V241.041H109.325V244H95.3797V222.672H109.222V225.66H99.0857V231.549H107.846V234.479ZM145.719 236.075V244H142.013V222.672H150.172C152.555 222.672 154.445 223.292 155.841 224.532C157.248 225.772 157.951 227.413 157.951 229.454C157.951 231.544 157.262 233.17 155.885 234.332C154.518 235.494 152.599 236.075 150.129 236.075H145.719ZM145.719 233.102H150.172C151.491 233.102 152.497 232.794 153.19 232.179C153.883 231.554 154.23 230.655 154.23 229.483C154.23 228.331 153.879 227.413 153.175 226.729C152.472 226.036 151.505 225.68 150.275 225.66H145.719V233.102ZM184.241 239.034H175.979L174.251 244H170.398L178.455 222.672H181.78L189.852 244H185.984L184.241 239.034ZM177.02 236.046H183.201L180.11 227.198L177.02 236.046ZM219.731 241.231C218.959 242.237 217.89 242.999 216.523 243.517C215.156 244.034 213.603 244.293 211.865 244.293C210.078 244.293 208.496 243.888 207.119 243.077C205.742 242.267 204.677 241.109 203.925 239.605C203.183 238.092 202.797 236.329 202.768 234.317V232.647C202.768 229.425 203.539 226.91 205.082 225.104C206.625 223.287 208.779 222.379 211.542 222.379C213.915 222.379 215.8 222.965 217.197 224.137C218.593 225.309 219.433 226.998 219.716 229.205H216.083C215.673 226.637 214.184 225.353 211.616 225.353C209.955 225.353 208.691 225.953 207.822 227.154C206.962 228.346 206.518 230.099 206.489 232.413V234.054C206.489 236.358 206.972 238.15 207.939 239.43C208.915 240.699 210.268 241.334 211.996 241.334C213.891 241.334 215.239 240.904 216.039 240.045V235.87H211.645V233.058H219.731V241.231ZM247.369 234.479H238.609V241.041H248.848V244H234.903V222.672H248.746V225.66H238.609V231.549H247.369V234.479ZM293.827 234.962H285.243V244H281.537V222.672H295.087V225.66H285.243V232.003H293.827V234.962ZM326.152 233.893C326.152 235.982 325.791 237.818 325.068 239.4C324.346 240.973 323.311 242.184 321.963 243.033C320.625 243.873 319.082 244.293 317.334 244.293C315.605 244.293 314.062 243.873 312.705 243.033C311.357 242.184 310.312 240.978 309.57 239.415C308.838 237.853 308.467 236.051 308.457 234.01V232.809C308.457 230.729 308.823 228.893 309.556 227.301C310.298 225.709 311.338 224.493 312.676 223.653C314.023 222.804 315.566 222.379 317.305 222.379C319.043 222.379 320.581 222.799 321.919 223.639C323.267 224.469 324.307 225.67 325.039 227.242C325.771 228.805 326.143 230.626 326.152 232.706V233.893ZM322.446 232.779C322.446 230.416 321.997 228.604 321.099 227.345C320.21 226.085 318.945 225.455 317.305 225.455C315.703 225.455 314.448 226.085 313.54 227.345C312.642 228.595 312.183 230.367 312.163 232.662V233.893C312.163 236.236 312.617 238.048 313.525 239.327C314.443 240.606 315.713 241.246 317.334 241.246C318.975 241.246 320.234 240.621 321.113 239.371C322.002 238.121 322.446 236.295 322.446 233.893V232.779ZM348.781 235.782H344.65V244H340.944V222.672H348.444C350.905 222.672 352.804 223.224 354.142 224.327C355.48 225.431 356.149 227.027 356.149 229.117C356.149 230.543 355.802 231.739 355.109 232.706C354.425 233.663 353.468 234.4 352.238 234.918L357.028 243.81V244H353.058L348.781 235.782ZM344.65 232.809H348.458C349.708 232.809 350.685 232.496 351.388 231.871C352.091 231.236 352.443 230.372 352.443 229.278C352.443 228.136 352.116 227.252 351.461 226.627C350.817 226.002 349.85 225.68 348.561 225.66H344.65V232.809ZM401.801 234.479H393.041V241.041H403.28V244H389.335V222.672H403.178V225.66H393.041V231.549H401.801V234.479ZM434.346 233.893C434.346 235.914 434.024 237.667 433.379 239.151C432.745 240.626 431.851 241.798 430.699 242.667L434.361 245.523L431.959 247.691L427.418 244.103C426.822 244.229 426.182 244.293 425.499 244.293C423.78 244.293 422.242 243.873 420.884 243.033C419.537 242.184 418.492 240.978 417.75 239.415C417.017 237.853 416.646 236.051 416.636 234.01V232.809C416.636 230.729 417.003 228.893 417.735 227.301C418.477 225.709 419.517 224.493 420.855 223.653C422.203 222.804 423.741 222.379 425.469 222.379C427.227 222.379 428.775 222.799 430.113 223.639C431.461 224.469 432.501 225.67 433.233 227.242C433.965 228.805 434.337 230.626 434.346 232.706V233.893ZM430.626 232.779C430.626 230.377 430.176 228.556 429.278 227.315C428.379 226.075 427.11 225.455 425.469 225.455C423.878 225.455 422.628 226.085 421.719 227.345C420.821 228.595 420.362 230.362 420.342 232.647V233.893C420.342 236.197 420.792 237.999 421.69 239.298C422.598 240.597 423.868 241.246 425.499 241.246C427.149 241.246 428.414 240.621 429.293 239.371C430.181 238.121 430.626 236.295 430.626 233.893V232.779ZM464.812 222.672V236.925C464.812 239.19 464.084 240.987 462.629 242.315C461.184 243.634 459.255 244.293 456.843 244.293C454.401 244.293 452.463 243.644 451.027 242.345C449.592 241.036 448.874 239.225 448.874 236.91V222.672H452.565V236.939C452.565 238.365 452.927 239.454 453.649 240.206C454.372 240.958 455.437 241.334 456.843 241.334C459.694 241.334 461.12 239.83 461.12 236.822V222.672H464.812ZM483.792 244H480.101V222.672H483.792V244ZM514.858 225.66H508.208V244H504.531V225.66H497.939V222.672H514.858V225.66ZM535.729 232.779L540.636 222.672H544.738L537.589 236.148V244H533.868V236.148L526.705 222.672H530.822L535.729 232.779Z" fill="white"/>
</svg>
